<?xml version="1.0" standalone="no"?>
<!DOCTYPE svg PUBLIC "-//W3C//DTD SVG 20010904//EN"
 "http://www.w3.org/TR/2001/REC-SVG-20010904/DTD/svg10.dtd">
<svg version="1.0" xmlns="http://www.w3.org/2000/svg"
 width="500.000000pt" height="500.000000pt" viewBox="0 0 500.000000 500.000000"
 preserveAspectRatio="xMidYMid meet">
<metadata>
Created by potrace 1.11, written by Peter Selinger 2001-2013
</metadata>
<g transform="translate(0.000000,500.000000) scale(0.100000,-0.100000)"
fill="#000000" stroke="none">
<path d="M2435 4295 c-61 -36 -117 -68 -125 -72 -8 -4 -95 -53 -192 -110 -98
-57 -183 -103 -189 -103 -6 0 -50 20 -97 45 -62 32 -106 64 -152 110 -104 106
-156 144 -187 139 -37 -7 -38 -8 -81 -72 -92 -136 -205 -402 -217 -510 -1 -12
-5 -25 -7 -28 -9 -8 -136 -19 -228 -19 -89 0 -105 2 -210 30 -91 24 -109 27
-159 27 -36 1 -49 -4 -68 -26 -13 -15 -23 -39 -23 -55 0 -15 -6 -33 -13 -40
-6 -8 -7 -11 -2 -8 6 3 10 -30 11 -91 0 -54 4 -131 9 -172 4 -41 8 -87 9 -102
0 -14 4 -24 8 -22 4 3 7 -4 7 -13 0 -41 9 -101 15 -112 4 -6 4 -11 0 -11 -3 0
-1 -7 6 -15 7 -8 9 -15 4 -15 -5 0 -2 -5 6 -10 13 -9 13 -10 0 -10 -12 0 -12
-2 -2 -9 8 -5 15 -20 15 -34 1 -14 5 -23 10 -20 6 4 12 -28 8 -49 0 -5 3 -8 7
-8 4 0 16 -14 26 -31 11 -18 14 -29 8 -25 -8 5 -10 2 -6 -8 3 -9 10 -13 15
-10 5 3 10 -2 10 -10 1 -9 2 -21 3 -27 0 -5 12 -19 26 -30 14 -12 20 -18 13
-15 -6 4 -15 1 -19 -5 -4 -7 -3 -9 4 -5 6 3 17 -3 25 -14 7 -11 17 -17 20 -13
4 3 7 -1 7 -9 0 -9 -5 -18 -12 -20 -7 -3 -5 -7 6 -11 10 -4 15 -3 11 3 -14 23
12 7 30 -18 19 -27 19 -27 0 -13 -11 8 -5 0 13 -16 31 -30 43 -51 20 -37 -7 4
-8 3 -4 -4 4 -6 13 -9 21 -5 10 3 15 -2 15 -16 0 -12 5 -21 11 -21 5 0 7 5 3
12 -4 7 -3 8 5 4 9 -6 9 -11 0 -22 -10 -12 -9 -13 6 -7 15 5 17 3 12 -12 -7
-16 -5 -16 10 -4 11 9 14 10 9 2 -4 -7 -2 -13 4 -13 14 0 59 -51 60 -67 0 -7
5 -13 11 -13 5 0 7 5 3 12 -4 7 -3 8 5 4 6 -4 9 -11 6 -16 -5 -9 19 -32 27
-25 7 7 3 -29 -5 -41 -3 -6 -4 -14 0 -18 9 -9 9 -366 0 -366 -4 0 -4 -8 0 -17
5 -10 8 -80 8 -155 0 -143 1 -145 44 -154 8 -1 17 -8 21 -15 4 -6 12 -9 18 -5
6 3 14 1 18 -5 5 -8 3 -9 -6 -4 -9 5 -11 4 -6 -4 4 -6 12 -9 17 -5 6 3 17 -4
26 -16 8 -12 21 -19 29 -16 8 3 14 1 14 -5 0 -6 7 -9 15 -5 9 3 15 0 15 -10 0
-11 6 -14 16 -10 8 3 13 2 10 -3 -3 -5 2 -15 11 -22 14 -12 16 -12 8 0 -6 11
-4 13 9 8 10 -4 20 -7 22 -7 2 0 4 -6 4 -14 0 -9 7 -13 19 -11 11 2 26 -4 33
-13 12 -16 11 -16 -7 -2 -18 14 -19 14 -7 -2 7 -9 22 -15 32 -13 13 3 17 -1
13 -11 -3 -10 0 -12 10 -8 8 3 25 -5 37 -18 13 -13 19 -16 15 -8 -7 12 -6 13
7 3 8 -7 19 -9 23 -5 5 4 4 1 0 -7 -6 -11 -4 -13 10 -7 16 6 16 4 4 -11 -12
-15 -12 -16 3 -10 10 3 20 2 23 -4 4 -5 11 -7 16 -4 5 4 9 1 9 -5 0 -6 5 -8
10 -5 6 3 10 -1 10 -11 0 -14 3 -14 16 -4 8 8 14 9 13 4 -3 -20 1 -35 10 -30
13 8 42 -4 35 -15 -3 -5 1 -6 9 -3 8 3 18 0 23 -7 5 -8 3 -10 -6 -4 -9 5 -11
4 -6 -4 6 -9 11 -9 22 0 12 10 13 9 8 -4 -4 -12 -1 -15 15 -12 14 2 21 -1 21
-11 0 -8 5 -12 10 -9 6 3 10 1 10 -4 0 -6 6 -10 13 -9 6 2 11 -3 9 -11 -3 -12
0 -12 13 -1 13 11 15 10 9 -3 -4 -12 0 -15 21 -13 14 2 24 1 21 -1 -9 -9 19
-31 31 -26 7 3 16 -2 19 -12 4 -9 12 -14 19 -11 14 5 48 -26 40 -37 -3 -4 0
-3 6 2 8 6 20 1 36 -15 26 -26 41 -32 27 -11 -5 7 -2 5 8 -5 9 -10 23 -18 32
-18 9 0 16 -3 16 -7 0 -5 12 -17 27 -27 14 -11 23 -14 19 -8 -4 7 -2 12 3 12
6 0 11 -6 11 -14 0 -8 5 -18 12 -22 8 -5 9 -2 4 12 -7 18 -6 18 12 -1 11 -11
17 -24 14 -29 -3 -5 1 -6 8 -1 8 5 17 2 24 -6 6 -8 18 -14 26 -14 8 0 14 -5
13 -12 -2 -7 4 -10 12 -7 8 4 15 1 15 -6 0 -6 5 -8 10 -5 6 3 10 1 10 -5 0 -6
5 -8 10 -5 6 3 10 1 10 -5 0 -6 5 -8 10 -5 6 3 10 -1 10 -9 0 -10 6 -13 17 -9
11 5 14 3 8 -6 -6 -10 -2 -11 15 -6 15 5 20 4 16 -4 -4 -6 -2 -11 5 -11 6 0
18 -8 26 -17 8 -10 11 -12 8 -5 -6 11 -3 11 16 0 13 -7 31 -20 39 -29 8 -9 21
-14 29 -11 8 3 11 0 7 -6 -3 -5 1 -13 10 -16 8 -3 12 -2 9 4 -3 6 -1 10 4 10
6 0 11 -7 11 -15 0 -19 21 -15 38 7 7 9 18 15 25 12 7 -2 21 3 32 12 11 8 14
12 6 8 -10 -5 -12 -3 -7 5 5 7 14 10 21 7 7 -2 21 2 32 10 10 9 11 12 3 8 -9
-4 -12 -3 -7 2 5 5 18 9 30 9 13 1 21 6 19 14 -2 8 3 11 13 8 8 -4 15 -2 15 4
0 6 5 7 10 4 6 -3 10 -2 10 4 0 6 10 15 21 22 17 9 20 8 14 -2 -5 -8 -4 -10 3
-5 7 4 12 15 13 24 0 11 2 13 6 4 4 -10 8 -10 19 -1 11 9 15 8 20 -5 3 -9 10
-13 15 -10 5 3 9 0 9 -6 0 -6 5 -8 10 -5 6 3 10 -4 11 -17 0 -22 1 -22 9 -3 8
18 9 18 10 -5 1 -23 2 -23 10 -5 7 17 9 17 9 3 1 -16 18 -23 43 -19 4 0 17
-13 28 -30 19 -25 24 -28 38 -17 13 11 14 11 7 -1 -6 -11 -4 -13 8 -8 12 4 14
2 10 -10 -5 -13 -3 -13 14 -5 16 9 24 7 41 -8 12 -11 33 -20 47 -20 17 0 25
-5 25 -17 0 -11 3 -14 8 -8 4 6 13 10 20 9 6 -1 17 -2 22 -3 6 0 10 -7 10 -14
0 -8 7 -14 15 -14 10 0 12 4 5 12 -7 8 -5 12 5 12 8 0 15 -6 15 -12 0 -14 42
-14 52 0 5 6 8 4 8 -5 0 -13 1 -13 10 0 8 13 10 12 10 -4 0 -18 1 -18 18 -3
12 11 22 13 35 6 9 -6 22 -7 27 -4 6 3 10 2 10 -2 0 -14 97 -8 115 7 13 11 14
10 8 -6 -6 -17 -5 -17 10 -5 12 9 17 10 17 2 0 -7 5 -9 10 -6 6 4 8 11 5 16
-3 5 1 6 9 3 9 -3 13 -11 9 -18 -4 -6 0 -6 9 2 9 7 29 10 47 7 25 -4 31 -2 32
12 0 11 3 13 6 6 2 -7 9 -13 14 -13 6 0 7 6 3 12 -5 8 0 7 11 -2 11 -9 16 -10
11 -2 -4 6 -3 12 1 12 5 0 15 -6 22 -12 11 -11 12 -10 6 1 -6 11 -3 13 14 8
17 -4 20 -3 12 7 -8 10 -4 12 19 11 21 -1 30 3 30 14 0 14 2 14 10 1 9 -13 14
-7 11 12 0 5 3 8 8 8 15 0 3 96 -18 141 -34 75 -73 172 -77 193 -2 12 -7 57
-10 101 -4 44 -8 82 -10 84 -2 2 2 11 9 19 10 13 9 14 -1 8 -11 -7 -12 -4 -3
13 7 11 14 21 17 21 3 0 2 -4 -1 -10 -11 -17 7 -11 21 8 11 14 13 14 14 2 0
-10 7 -7 21 10 17 21 20 22 15 5 -5 -14 1 -11 21 11 16 18 36 31 46 29 10 -2
14 1 10 8 -4 6 0 8 10 4 11 -4 14 -2 11 8 -6 15 49 49 60 37 4 -3 4 1 0 11 -5
13 -2 16 10 11 11 -4 16 -1 16 12 0 9 3 15 6 11 8 -8 44 25 38 35 -3 5 0 7 8
6 7 -2 12 3 10 10 -1 7 5 12 15 10 10 -2 18 3 18 10 0 15 26 33 37 26 4 -3 5
3 1 12 -5 13 -3 15 7 9 9 -5 11 -4 6 4 -5 7 1 20 15 32 12 10 18 19 13 19 -5
0 -2 5 8 10 14 9 15 15 5 41 -14 36 -47 64 -132 108 l-60 31 -1 742 c0 664 1
744 15 756 10 8 10 11 2 6 -11 -6 -12 -1 -6 22 4 16 9 43 12 59 3 17 9 34 13
39 5 5 5 16 0 26 -5 9 -5 22 -1 29 5 7 6 22 3 34 -4 15 -2 18 8 12 9 -6 10 -4
3 9 -5 9 -7 38 -3 65 3 26 3 60 -1 74 -4 15 -4 29 1 32 4 3 2 25 -5 49 -8 24
-11 47 -8 50 11 11 -60 34 -91 29 -17 -2 -58 -12 -91 -22 -77 -24 -132 -34
-170 -33 -142 7 -339 8 -377 2 -26 -4 -51 -3 -55 1 -4 4 -24 16 -43 27 -61 34
-684 393 -715 413 l-31 18 -109 -64z m615 -3445 c0 -5 -2 -10 -4 -10 -3 0 -8
5 -11 10 -3 6 -1 10 4 10 6 0 11 -4 11 -10z m684 -88 c3 -5 -1 -9 -9 -9 -8 0
-12 4 -9 9 3 4 7 8 9 8 2 0 6 -4 9 -8z"/>
<path d="M896 2485 c4 -8 11 -15 16 -15 6 0 5 6 -2 15 -7 8 -14 15 -16 15 -2
0 -1 -7 2 -15z"/>
<path d="M4020 1490 c-9 -6 -10 -10 -3 -10 6 0 15 5 18 10 8 12 4 12 -15 0z"/>
<path d="M2990 864 c0 -8 5 -12 10 -9 6 4 8 11 5 16 -9 14 -15 11 -15 -7z"/>
<path d="M3113 805 c0 -8 4 -15 9 -15 4 0 8 4 8 9 0 6 -4 12 -8 15 -5 3 -9 -1
-9 -9z"/>
<path d="M3416 741 c-3 -5 1 -11 9 -14 9 -4 12 -1 8 9 -6 16 -10 17 -17 5z"/>
</g>
</svg>
